<svg width="24" height="24" viewBox="0 0 24 24" fill="none" xmlns="http://www.w3.org/2000/svg">
<path d="M17.5 1.75C19.0188 1.75 20.25 2.98122 20.25 4.5V21.5C20.25 21.7634 20.1116 22.008 19.8857 22.1436C19.66 22.2788 19.3797 22.2858 19.1475 22.1621L12 18.3496L4.85254 22.1621C4.62027 22.2858 4.33996 22.2788 4.11426 22.1436C3.88835 22.008 3.75 21.7634 3.75 21.5V4.5C3.75 2.98122 4.98122 1.75 6.5 1.75H17.5ZM15.707 7.79297C15.3165 7.40244 14.6835 7.40244 14.293 7.79297L11 11.0859L9.70703 9.79297C9.31651 9.40244 8.68349 9.40244 8.29297 9.79297C7.90244 10.1835 7.90244 10.8165 8.29297 11.207L10.293 13.207C10.6835 13.5976 11.3165 13.5976 11.707 13.207L15.707 9.20703C16.0976 8.81651 16.0976 8.18349 15.707 7.79297Z" fill="#10B981"/>
</svg>
