<svg width="58" height="58" viewBox="0 0 58 58" fill="none" xmlns="http://www.w3.org/2000/svg">
<path fill-rule="evenodd" clip-rule="evenodd" d="M28.0029 3.02075C29.3801 3.01891 30.5992 3.01755 31.748 3.42505C31.9848 3.50902 32.2169 3.60622 32.4434 3.71509C33.5425 4.24354 34.4043 5.11075 35.377 6.09106L46.9346 17.7102C48.064 18.842 49.0669 19.8463 49.6084 21.1604C50.1498 22.4744 50.148 23.8972 50.1455 25.5002L50.1445 33.8967C50.1446 38.2032 50.1454 41.6745 49.7803 44.4045C49.4012 47.2389 48.5897 49.6254 46.7041 51.5207C44.8186 53.416 42.4445 54.2314 39.625 54.6125C36.9091 54.9796 33.4551 54.9798 29.1709 54.9797C24.8868 54.9798 21.0899 54.9796 18.374 54.6125C15.5544 54.2315 13.1805 53.416 11.2949 51.5207C9.40937 49.6254 8.59787 47.2388 8.21875 44.4045C7.85361 41.6745 7.85345 38.2032 7.85352 33.8967V22.844C7.85347 19.1376 7.85372 16.1494 8.12988 13.7717C8.41563 11.3117 9.02389 9.20375 10.4561 7.41821C10.9818 6.76279 11.5755 6.16541 12.2275 5.63696C14.0039 4.19732 16.1015 3.5863 18.5488 3.29907C20.9141 3.02151 24.3159 3.0207 28.0029 3.02075ZM19.333 39.2707C18.3321 39.2707 17.5206 40.0823 17.5205 41.0832C17.5205 42.0843 18.332 42.8957 19.333 42.8957H38.666C39.667 42.8957 40.4785 42.0843 40.4785 41.0832C40.4784 40.0823 39.667 39.2707 38.666 39.2707H19.333ZM19.333 29.6047C18.332 29.6047 17.5205 30.4162 17.5205 31.4172C17.5207 32.4181 18.3321 33.2297 19.333 33.2297H29C30.0007 33.2295 30.8123 32.4179 30.8125 31.4172C30.8125 30.4163 30.0009 29.6049 29 29.6047H19.333ZM30.1846 7.91235C30.1845 11.2035 30.1847 12.7687 30.4658 14.8596C30.7583 17.0349 31.3833 18.8669 32.8379 20.3215C34.2925 21.7761 36.1246 22.4011 38.2998 22.6936C40.3949 22.9753 41.9627 22.9778 45.2676 22.9778C45.1303 22.6447 44.8755 22.3289 43.3818 20.8274L32.2529 9.64087C30.9653 8.34652 30.6235 8.02401 30.1846 7.89184V7.91235Z" fill="#2563EB"/>
</svg>
