<svg width="58" height="58" viewBox="0 0 58 58" fill="none" xmlns="http://www.w3.org/2000/svg">
<path d="M38.9825 37.6456C39.5314 37.3163 39.8059 37.1523 40.0431 37.2706C40.2802 37.3889 40.3126 37.6951 40.3771 38.3077C40.7769 42.1081 40.1004 47.0337 36.631 51.8292C36.2868 52.3048 35.7336 52.5843 35.1466 52.5792C34.5595 52.5739 34.0106 52.2846 33.6749 51.8028L32.171 49.6446L27.3663 51.9434C26.578 52.3206 25.6325 52.0817 25.1183 51.3751C24.6061 50.6711 24.6668 49.7026 25.2618 49.0684L25.2647 49.0655L25.2687 49.0606C25.4237 48.8862 26.5737 47.5297 27.212 45.3995C27.3431 44.9619 27.4088 44.7433 27.5196 44.6007C27.6305 44.458 27.8006 44.3551 28.1417 44.1505L38.9825 37.6456ZM15.5528 21.8477C15.8452 21.6723 15.9918 21.5844 16.1095 21.6417C16.2271 21.699 16.2482 21.8706 16.2911 22.213C17.1864 29.3493 20.5805 36.27 27.1202 39.6192C27.4872 39.8072 27.6717 39.9011 27.6769 40.043C27.6816 40.1852 27.5082 40.2895 27.1622 40.4971L15.6798 47.3858L15.5255 47.4444C13.3863 48.2464 11.1247 47.2748 9.41221 45.9512C7.61333 44.5608 5.93895 42.4437 4.72861 39.9454C3.52099 37.4526 2.92475 34.8874 3.03428 32.709C3.13717 30.6629 3.93364 28.4412 6.05283 27.5479L15.5528 21.8477ZM23.9376 16.8165C24.2631 16.6212 24.4264 16.5235 24.5479 16.5899C24.6693 16.6564 24.6752 16.8498 24.6866 17.2354C24.9036 24.5509 28.6639 31.5139 35.5294 34.5411C35.9333 34.7192 36.1352 34.8086 36.1446 34.9551C36.1538 35.1019 35.9689 35.2135 35.5987 35.4356L32.8536 37.0821C32.3694 37.3726 32.1267 37.5178 31.8409 37.5391C31.5553 37.5604 31.3147 37.462 30.8341 37.2637C23.849 34.383 20.7261 28.0184 19.8077 20.8907C19.7171 20.1877 19.6712 19.8358 19.8282 19.5118C19.9852 19.1878 20.3041 18.9972 20.9405 18.6153L23.9376 16.8165ZM42.4757 5.72858C44.6148 4.92679 46.8766 5.89821 48.589 7.22175C50.3879 8.61224 52.0622 10.7301 53.2726 13.2286C54.48 15.7212 55.0764 18.2857 54.9669 20.4639C54.864 22.5103 54.0669 24.7329 51.9474 25.626L41.5548 31.8614C41.2213 32.0615 41.0545 32.1615 40.8546 32.2032C40.6547 32.2449 40.4823 32.2226 40.1378 32.1778C32.0536 31.1265 28.667 22.9827 28.3448 15.545C28.3174 14.9109 28.3036 14.5935 28.461 14.3008C28.6185 14.0085 28.9069 13.8353 29.4835 13.4893L42.3204 5.78717L42.4757 5.72858ZM46.3722 10.0899C44.9979 9.02772 44.1028 8.99024 43.7481 9.12311C43.5031 9.215 42.9804 9.63023 42.9044 11.1407C42.8323 12.5738 43.2322 14.5312 44.2413 16.6143C45.2476 18.6916 46.5911 20.3376 47.879 21.3331C49.2535 22.3954 50.1484 22.4328 50.503 22.2999C50.7481 22.208 51.2708 21.7927 51.3468 20.2823C51.4188 18.8492 51.019 16.8918 50.0099 14.8087C49.0036 12.7314 47.6601 11.0854 46.3722 10.0899Z" fill="#07BD74"/>
</svg>
