<svg width="870" height="933" viewBox="0 0 870 933" fill="none" xmlns="http://www.w3.org/2000/svg">
<g id="No Results">
<g id="circle">
<path id="Stroke 1" d="M27.9873 427.003V436.682" stroke="#D2D8DF" stroke-width="2.921" stroke-linecap="round"/>
<g id="Group 8">
<path id="Stroke 2" d="M11.4272 432.245L17.4554 440.386" stroke="#D2D8DF" stroke-width="2.921" stroke-linecap="round"/>
<path id="Stroke 4" d="M4.38135 453.916H12.905" stroke="#D2D8DF" stroke-width="2.921" stroke-linecap="round"/>
<path id="Stroke 6" d="M10.7373 475.973L16.7654 467.832" stroke="#D2D8DF" stroke-width="2.921" stroke-linecap="round"/>
</g>
<path id="Stroke 9" d="M27.9873 478.62V468.942" stroke="#D2D8DF" stroke-width="2.921" stroke-linecap="round"/>
<path id="Stroke 10" d="M40.2867 472.169L35.3687 465.716" stroke="#D2D8DF" stroke-width="2.921" stroke-linecap="round"/>
<path id="Stroke 11" d="M50.1066 456.038H42.7295" stroke="#D2D8DF" stroke-width="2.921" stroke-linecap="round"/>
<path id="Stroke 12" d="M45.2012 433.456L40.2832 439.908" stroke="#D2D8DF" stroke-width="2.921" stroke-linecap="round"/>
<path id="Stroke 13" d="M423.712 4.38135V10.8336" stroke="#D2D8DF" stroke-width="2.921" stroke-linecap="round"/>
<path id="Stroke 15" d="M408.968 23.7378H413.886" stroke="#D2D8DF" stroke-width="2.921" stroke-linecap="round"/>
<path id="Stroke 16" d="M423.712 43.0953V36.6431" stroke="#D2D8DF" stroke-width="2.921" stroke-linecap="round"/>
<path id="Stroke 17" d="M436.011 23.7378H431.093" stroke="#D2D8DF" stroke-width="2.921" stroke-linecap="round"/>
<path id="Stroke 18" d="M138.592 275.376V285.054" stroke="#D2D8DF" stroke-width="2.921" stroke-linecap="round"/>
<path id="Stroke 19" d="M116.467 304.409H123.844" stroke="#D2D8DF" stroke-width="2.921" stroke-linecap="round"/>
<path id="Stroke 20" d="M138.592 330.22V320.542" stroke="#D2D8DF" stroke-width="2.921" stroke-linecap="round"/>
<path id="Stroke 21" d="M158.265 304.409H150.888" stroke="#D2D8DF" stroke-width="2.921" stroke-linecap="round"/>
<g id="Group 42">
<path id="Stroke 22" d="M667.674 627.148C673.548 627.148 678.312 633.402 678.312 641.114C678.312 648.829 673.548 655.08 667.674 655.08C661.8 655.08 657.037 648.829 657.037 641.114" stroke="#D2D8DF" stroke-width="2.921" stroke-linecap="round"/>
<path id="Fill 26" fill-rule="evenodd" clip-rule="evenodd" d="M716.366 500.441C722.682 497.855 732.364 487.716 734.605 476.807C736.638 486.45 745.158 497.855 752.845 498.718C744.191 502.739 735.918 514.686 734.605 524.072C733.712 514.506 722.269 501.835 716.366 500.441Z" fill="#EBECEE"/>
<path id="Fill 28" fill-rule="evenodd" clip-rule="evenodd" d="M67.9893 622.846C71.1485 621.553 75.9874 616.485 77.108 611.03C78.1242 615.849 82.3831 621.553 86.2267 621.986C81.901 623.994 77.7653 629.969 77.108 634.662C76.6614 629.878 70.9398 623.542 67.9893 622.846Z" fill="#EBECEE"/>
<path id="Fill 30" fill-rule="evenodd" clip-rule="evenodd" d="M126.626 174.066C126.626 180.049 122.932 184.895 118.377 184.895C113.82 184.895 110.128 180.049 110.128 174.066C110.128 168.085 113.82 163.236 118.377 163.236C122.932 163.236 126.626 168.085 126.626 174.066Z" fill="#D1D8DF"/>
<path id="Fill 32" fill-rule="evenodd" clip-rule="evenodd" d="M677.428 203.145C677.428 213.142 671.254 221.245 663.642 221.245C656.025 221.245 649.853 213.142 649.853 203.145C649.853 193.149 656.025 185.045 663.642 185.045C671.254 185.045 677.428 193.149 677.428 203.145Z" fill="#EBECEE"/>
<path id="Fill 34" fill-rule="evenodd" clip-rule="evenodd" d="M868.382 154.104C868.382 162.035 863.486 168.462 857.447 168.462C851.407 168.462 846.511 162.035 846.511 154.104C846.511 146.173 851.407 139.746 857.447 139.746C863.486 139.746 868.382 146.173 868.382 154.104Z" fill="#EBECEE"/>
<path id="Stroke 36" fill-rule="evenodd" clip-rule="evenodd" d="M280.784 824.678C280.784 829.678 277.697 833.729 273.889 833.729C270.083 833.729 266.997 829.678 266.997 824.678C266.997 819.678 270.083 815.626 273.889 815.626C277.697 815.626 280.784 819.678 280.784 824.678Z" stroke="#D2D8DF" stroke-width="2.921" stroke-linecap="round"/>
<path id="Stroke 38" fill-rule="evenodd" clip-rule="evenodd" d="M276.665 104.493C276.665 110.476 272.972 115.323 268.417 115.323C263.861 115.323 260.168 110.476 260.168 104.493C260.168 98.5126 263.861 93.6636 268.417 93.6636C272.972 93.6636 276.665 98.5126 276.665 104.493Z" stroke="#D2D8DF" stroke-width="2.921" stroke-linecap="round"/>
<path id="Stroke 40" fill-rule="evenodd" clip-rule="evenodd" d="M487.073 924.91C481.803 927.543 475.904 924.067 473.898 917.149C471.893 910.229 474.539 902.482 479.812 899.852C485.081 897.219 490.98 900.693 492.985 907.613C494.992 914.533 492.344 922.278 487.073 924.91Z" stroke="#D2D8DF" stroke-width="2.921" stroke-linecap="round"/>
</g>
</g>
<g id="search">
<g id="documents">
<path id="Fill 1" fill-rule="evenodd" clip-rule="evenodd" d="M527.135 646.717H263.317C244.748 646.717 229.548 631.43 229.548 612.747V235.476C229.548 216.792 244.748 201.513 263.317 201.513H527.135C545.711 201.513 560.911 216.792 560.911 235.476V612.747C560.911 631.43 545.711 646.717 527.135 646.717Z" fill="#E0E2EE"/>
<path id="Fill 3" fill-rule="evenodd" clip-rule="evenodd" d="M504.633 662.847H240.815C222.246 662.847 207.047 647.559 207.047 628.876V251.605C207.047 232.922 222.246 217.642 240.815 217.642H504.633C523.21 217.642 538.409 232.922 538.409 251.605V628.876C538.409 647.559 523.21 662.847 504.633 662.847Z" fill="#E8EBF2"/>
<path id="Fill 5" fill-rule="evenodd" clip-rule="evenodd" d="M482.722 675.581H218.359C199.751 675.581 184.521 660.357 184.521 641.751V266.043C184.521 247.436 199.751 232.22 218.359 232.22H482.722C501.337 232.22 516.568 247.436 516.568 266.043V641.751C516.568 660.357 501.337 675.581 482.722 675.581Z" fill="#D8DBEA"/>
<path id="Fill 8" fill-rule="evenodd" clip-rule="evenodd" d="M482.722 675.581H218.359C199.751 675.581 184.521 660.357 184.521 641.751V266.043C184.521 247.436 199.751 232.22 218.359 232.22H482.722C501.337 232.22 516.568 247.436 516.568 266.043V641.751C516.568 660.357 501.337 675.581 482.722 675.581Z" fill="#F1F2F7"/>
<path id="Fill 11" fill-rule="evenodd" clip-rule="evenodd" d="M444.615 346.688H249.35C243.774 346.688 239.209 342.333 239.209 337.013C239.209 331.686 243.774 327.331 249.35 327.331H444.615C450.191 327.331 454.755 331.686 454.755 337.013C454.755 342.333 450.191 346.688 444.615 346.688Z" fill="#E0E2EE"/>
<path id="Fill 13" fill-rule="evenodd" clip-rule="evenodd" d="M444.615 404.757H249.35C243.774 404.757 239.209 400.402 239.209 395.082C239.209 389.755 243.774 385.4 249.35 385.4H444.615C450.191 385.4 454.755 389.755 454.755 395.082C454.755 400.402 450.191 404.757 444.615 404.757Z" fill="#E0E2EE"/>
<path id="Fill 15" fill-rule="evenodd" clip-rule="evenodd" d="M444.615 462.828H249.35C243.774 462.828 239.209 458.473 239.209 453.153C239.209 447.833 243.774 443.471 249.35 443.471H444.615C450.191 443.471 454.755 447.833 454.755 453.153C454.755 458.473 450.191 462.828 444.615 462.828Z" fill="#E0E2EE"/>
<path id="Fill 17" fill-rule="evenodd" clip-rule="evenodd" d="M444.615 520.897H249.35C243.774 520.897 239.209 516.543 239.209 511.223C239.209 505.895 243.774 501.541 249.35 501.541H444.615C450.191 501.541 454.755 505.895 454.755 511.223C454.755 516.543 450.191 520.897 444.615 520.897Z" fill="#E0E2EE"/>
<path id="Fill 19" fill-rule="evenodd" clip-rule="evenodd" d="M351.275 578.968H249.393C243.793 578.968 239.209 574.613 239.209 569.293C239.209 563.966 243.793 559.611 249.393 559.611H351.275C356.875 559.611 361.459 563.966 361.459 569.293C361.459 574.613 356.875 578.968 351.275 578.968Z" fill="#E0E2EE"/>
</g>
<g id="search_2">
<path id="Fill 21" fill-rule="evenodd" clip-rule="evenodd" d="M556.917 503.918C517.872 543.066 457.425 547.482 413.541 517.257C407.933 513.325 402.595 508.909 397.617 503.918C395.055 501.357 392.639 498.714 390.363 495.931C385.811 490.374 381.824 484.447 378.557 478.323C372.802 467.98 368.888 457.005 366.751 445.66C359.858 410.083 370.165 371.789 397.617 344.273C425.135 316.675 463.328 306.406 498.812 313.252C510.119 315.46 521.073 319.384 531.389 325.089C537.505 328.439 543.334 332.436 548.885 337C551.653 339.274 554.289 341.704 556.843 344.273C561.829 349.264 566.3 354.608 570.148 360.239C600.301 404.23 595.889 464.844 556.917 503.918Z" fill="white" fill-opacity="0.1"/>
<path id="Fill 23" fill-rule="evenodd" clip-rule="evenodd" d="M546.007 496.208C505.386 536.951 439.556 536.943 398.928 496.208C358.352 455.519 358.352 389.497 398.981 348.762C439.556 308.073 505.386 308.073 545.962 348.762C586.583 389.497 586.583 455.519 546.007 496.208ZM566.846 327.832C514.705 275.545 430.212 275.545 378.071 327.832C325.938 380.111 325.893 464.893 378.026 517.18C425.48 564.752 499.859 569.043 552.174 529.983C557.284 526.162 562.204 521.88 566.898 517.18C571.585 512.473 575.856 507.538 579.658 502.414C618.608 449.946 614.292 375.411 566.846 327.832Z" fill="#E0E2EE"/>
<path id="Fill 25" fill-rule="evenodd" clip-rule="evenodd" d="M772.054 714.276L769.865 716.471C755.383 731.002 731.668 731.002 717.179 716.471L583.46 582.379L638.336 527.35L772.054 661.443C786.544 675.973 786.544 699.746 772.054 714.276Z" fill="#2563EB"/>
<path id="Fill 27" fill-rule="evenodd" clip-rule="evenodd" d="M582.547 498.315L622.061 537.94L594.009 566.063L554.502 526.438C559.716 522.54 564.73 518.17 569.527 513.374C574.309 508.579 578.667 503.544 582.547 498.315Z" fill="#E0E2EE"/>
<path id="Fill 29" fill-rule="evenodd" clip-rule="evenodd" d="M770.047 659.795L715.521 714.466L705.705 704.615L760.223 649.944L770.047 659.795Z" fill="#E2E8F0"/>
<path id="Fill 31" fill-rule="evenodd" clip-rule="evenodd" d="M641.344 529.244L585.325 585.421L577.002 577.075L633.021 520.898L641.344 529.244Z" fill="#E2E8F0"/>
<path id="Fill 33" fill-rule="evenodd" clip-rule="evenodd" d="M519.099 334.747L381.718 472.507C376.544 463.208 373.026 453.341 371.112 443.143L489.816 324.105C499.979 326.098 509.826 329.618 519.099 334.747Z" fill="white" fill-opacity="0.5"/>
<path id="Fill 35" fill-rule="evenodd" clip-rule="evenodd" d="M564.146 367.491L415.621 507.993C410.302 504.482 405.239 500.53 400.518 496.064C398.088 493.765 395.79 491.407 393.639 488.916L543.973 346.688C546.605 348.73 549.105 350.904 551.528 353.203C556.249 357.669 560.496 362.452 564.146 367.491Z" fill="white" fill-opacity="0.5"/>
</g>
</g>
</g>
</svg>
