<svg width="104" height="27" viewBox="0 0 104 27" fill="none" xmlns="http://www.w3.org/2000/svg">
<path d="M3.60008 21.3281C3.33341 21.3281 3.20008 21.1948 3.20008 20.9281V4.25612H0.400078C0.133412 4.25612 7.82013e-05 4.12279 7.82013e-05 3.85612V0.400124C7.82013e-05 0.133457 0.133412 0.000123978 0.400078 0.000123978H11.3281C11.5947 0.000123978 11.7281 0.133457 11.7281 0.400124V3.85612C11.7281 4.12279 11.5947 4.25612 11.3281 4.25612H8.52808V20.9281C8.52808 21.1948 8.39475 21.3281 8.12808 21.3281H3.60008ZM22.7306 21.3281C22.6239 21.3281 22.5066 21.3121 22.3786 21.2801C22.2612 21.2481 22.1492 21.2215 22.0426 21.2001L19.1946 20.4961L15.9306 19.4081C15.6106 19.3015 15.4506 18.9921 15.4506 18.4801V7.84012C15.4506 7.58412 15.5412 7.37079 15.7226 7.20012L18.9226 4.00012C19.1039 3.81879 19.3172 3.72812 19.5626 3.72812H24.6826C24.9279 3.72812 25.1412 3.81879 25.3226 4.00012L28.5226 7.20012C28.7039 7.37079 28.7946 7.58412 28.7946 7.84012V14.4001H20.2026L20.0906 16.5281L22.3626 17.2801L26.4426 17.5681C26.6239 17.6001 26.7146 17.7228 26.7146 17.9361V20.9281C26.7146 21.1948 26.5812 21.3281 26.3146 21.3281H22.7306ZM22.0906 11.8881H22.3946C22.9172 11.8881 23.3332 11.6908 23.6426 11.2961C23.9626 10.9015 24.1226 10.3681 24.1226 9.69612V9.37612C24.1226 8.71479 23.9626 8.18679 23.6426 7.79212C23.3332 7.39746 22.9172 7.20012 22.3946 7.20012H22.0746C21.5626 7.20012 21.1519 7.39746 20.8426 7.79212C20.5439 8.18679 20.3946 8.71479 20.3946 9.37612V9.69612C20.3946 10.3681 20.5439 10.9015 20.8426 11.2961C21.1519 11.6908 21.5679 11.8881 22.0906 11.8881ZM36.1251 21.3281C35.8797 21.3281 35.6664 21.2375 35.4851 21.0561L32.2851 17.8561C32.1037 17.6855 32.0131 17.4721 32.0131 17.2161V7.84012C32.0131 7.58412 32.1037 7.37079 32.2851 7.20012L35.4851 4.00012C35.6664 3.81879 35.8797 3.72812 36.1251 3.72812H44.6851C44.9517 3.72812 45.0851 3.86146 45.0851 4.12812V20.9281C45.0851 21.1948 44.9517 21.3281 44.6851 21.3281H41.3571C41.2184 21.3281 41.1117 21.3015 41.0371 21.2481C40.9731 21.1948 40.8984 21.1308 40.8131 21.0561L40.0131 20.2561L39.2131 21.0561C39.0424 21.2375 38.8291 21.3281 38.5731 21.3281H36.1251ZM37.9971 17.6001H39.1171C39.4584 17.6001 39.6931 17.5308 39.8211 17.3921C39.9491 17.2535 40.0131 17.0081 40.0131 16.6561V7.45612H37.9971C37.6451 7.45612 37.4051 7.52546 37.2771 7.66412C37.1491 7.80279 37.0851 8.04812 37.0851 8.40012V16.6561C37.0851 17.0081 37.1491 17.2535 37.2771 17.3921C37.4051 17.5308 37.6451 17.6001 37.9971 17.6001ZM49.2126 21.3281C48.9459 21.3281 48.8126 21.1948 48.8126 20.9281V4.12812C48.8126 3.86146 48.9459 3.72812 49.2126 3.72812H56.4926C56.7379 3.72812 56.9512 3.81879 57.1326 4.00012L59.1006 5.96812H59.6926L61.6606 4.00012C61.8419 3.81879 62.0552 3.72812 62.3006 3.72812H65.7726C66.0179 3.72812 66.2312 3.81879 66.4126 4.00012L69.6126 7.20012C69.7939 7.37079 69.8846 7.58412 69.8846 7.84012V20.9281C69.8846 21.1948 69.7512 21.3281 69.4846 21.3281H65.2126C64.9459 21.3281 64.8126 21.1948 64.8126 20.9281V8.40012C64.8126 7.95212 64.5886 7.72812 64.1406 7.72812H61.8846V20.9281C61.8846 21.1948 61.7512 21.3281 61.4846 21.3281H57.2126C56.9459 21.3281 56.8126 21.1948 56.8126 20.9281V8.40012C56.8126 7.95212 56.5886 7.72812 56.1406 7.72812H53.8846V20.9281C53.8846 21.1948 53.7512 21.3281 53.4846 21.3281H49.2126ZM77.7371 21.3281C77.4811 21.3281 77.2677 21.2375 77.0971 21.0561L73.8971 17.8561C73.7157 17.6855 73.6251 17.4721 73.6251 17.2161V4.12812C73.6251 3.86146 73.7584 3.72812 74.0251 3.72812H78.2971C78.5637 3.72812 78.6971 3.86146 78.6971 4.12812V16.5761C78.6971 17.0775 78.9424 17.3281 79.4331 17.3281H81.6251V4.12812C81.6251 3.86146 81.7584 3.72812 82.0251 3.72812H86.2971C86.5637 3.72812 86.6971 3.86146 86.6971 4.12812V20.9281C86.6971 21.1948 86.5637 21.3281 86.2971 21.3281H77.7371ZM90.8376 26.1281C90.5709 26.1281 90.4376 25.9948 90.4376 25.7281V4.12812C90.4376 3.86146 90.5709 3.72812 90.8376 3.72812H94.1496C94.3416 3.72812 94.5282 3.81879 94.7096 4.00012L95.5096 4.80013L96.3096 4.00012C96.4802 3.81879 96.6936 3.72812 96.9496 3.72812H99.3976C99.6429 3.72812 99.8562 3.81879 100.038 4.00012L103.238 7.20012C103.419 7.37079 103.51 7.58412 103.51 7.84012V17.2161C103.51 17.4721 103.419 17.6855 103.238 17.8561L100.038 21.0561C99.8562 21.2375 99.6429 21.3281 99.3976 21.3281H96.9496C96.6936 21.3281 96.4802 21.2375 96.3096 21.0561L95.5096 20.2561V25.7281C95.5096 25.9948 95.3762 26.1281 95.1096 26.1281H90.8376ZM95.5096 17.6001H97.5256C97.8776 17.6001 98.1176 17.5308 98.2456 17.3921C98.3736 17.2535 98.4376 17.0081 98.4376 16.6561V8.40012C98.4376 8.04812 98.3736 7.80279 98.2456 7.66412C98.1176 7.52546 97.8776 7.45612 97.5256 7.45612H96.4056C96.0642 7.45612 95.8296 7.52546 95.7016 7.66412C95.5736 7.80279 95.5096 8.04812 95.5096 8.40012V17.6001Z" fill="white"/>
</svg>
